:SAMPLES-PER-SECOND 30
:FULLY-SPECIFIED
:DEGREES
490
root  63.9709 37.2873 0.657583 -73.302 -88.2837 70.3913
RightUpLeg  -23.6828 -5.54091 -1.55157
RightLeg  11.5414 2.22752 0.696159
RightFoot  5.39802 -0.232458 1.63827
RightToes  -4.65663e-010 0 -3.6325e-017
Spine  5.0016 -1.32402 -0.0725965
Spine1  7.70427 -2.32028 3.29344
HEad  -5.68809 -31.8091 -9.49238
LeftShoulder1  -0.326294 4.3578 -32.0777
LeftArm  21.281 -12.4168 -49.2635
LeftForeArm  16.7405 -25.8102 -4.64642
LeftHand  -0.0338507 6.57453 0.196616
RightShoulder  -0.869301 -5.95723 28.841
RightArm  13.9713 -6.3638 44.9404
RightForeArm  19.505 10.2168 6.47901
RightHand  0.0194661 3.59486 0.00158078
LeftUpLeg  16.0607 3.83798 -2.57486
LeftLeg  14.5405 -0.680629 0.611646
LeftFoot  -23.5403 0.21481 0.698321
LeftToes  8.74931e-010 -1.05764e-010 1.2659e-011
491
root  62.4102 37.1709 0.489628 -30.0223 -89.7027 26.7339
RightUpLeg  -23.717 -4.02031 -0.0077246
RightLeg  16.677 1.64554 0.3909
RightFoot  6.51305 -0.196813 1.51094
RightToes  -4.65663e-010 0 -3.6325e-017
Spine  5.28474 -1.37506 2.61189
Spine1  7.30044 -2.11709 2.85216
HEad  -5.09776 -32.05 -9.90181
LeftShoulder1  -0.31801 4.33049 -32.3464
LeftArm  22.5112 -10.051 -49.5571
LeftForeArm  16.2013 -25.2846 -4.56058
LeftHand  -0.0295705 7.17736 0.459062
RightShoulder  -0.876268 -5.95997 29.0857
RightArm  12.8802 -6.34841 44.2175
RightForeArm  18.001 9.62905 6.31718
RightHand  -0.0334035 5.30795 -0.714999
LeftUpLeg  17.6147 2.61002 -0.494847
LeftLeg  17.3274 -0.916737 0.218408
LeftFoot  -23.089 -0.101171 -2.32872
LeftToes  8.74931e-010 -1.05764e-010 1.2659e-011
492
root  60.999 37.0822 0.309535 139.58 -88.6006 -142.797
RightUpLeg  -24.4114 -2.21462 1.38536
RightLeg  21.9449 1.60896 0.480687
RightFoot  4.45254 0.189815 -1.15597
RightToes  -4.65663e-010 0 -3.6325e-017
Spine  5.61656 -1.06936 4.67389
Spine1  7.08756 -1.41993 2.42633
HEad  -4.77755 -31.7892 -9.71746
LeftShoulder1  -0.376892 4.48376 -32.2463
LeftArm  22.1109 -6.91413 -49.7549
LeftForeArm  16.6687 -24.5583 -4.37443
LeftHand  -0.0197882 8.25477 0.970741
RightShoulder  -0.863741 -5.93111 28.9773
RightArm  12.1157 -4.89318 44.7424
RightForeArm  18.7087 7.91366 6.38903
RightHand  -0.0622123 3.1736 -0.949059
LeftUpLeg  17.0312 3.07751 1.16808
LeftLeg  22.9163 -2.01021 -0.653886
LeftFoot  -21.164 -0.480092 -7.17013
LeftToes  8.74931e-010 -1.05764e-010 1.2659e-011
493
root  59.7421 37.0525 0.0863265 133.137 -87.9161 -136.258
RightUpLeg  -24.3502 -0.475009 2.1348
RightLeg  25.7564 0.389355 -0.0263619
RightFoot  1.60222 0.285114 -2.39219
RightToes  -4.65663e-010 0 -3.6325e-017
Spine  7.5064 -1.26698 5.67017
Spine1  4.80973 -1.2607 2.86976
HEad  -4.35073 -31.0912 -10.7915
LeftShoulder1  -0.476526 4.72402 -32.874
LeftArm  23.2093 -3.16041 -48.361
LeftForeArm  17.87 -24.0913 -4.23052
LeftHand  -0.0374473 7.80149 0.245154
RightShoulder  -0.794691 -5.74702 28.7828
RightArm  11.9355 -4.12412 45.3167
RightForeArm  21.6693 6.97359 6.33299
RightHand  0.0768207 1.0694 1.18986
LeftUpLeg  13.9339 3.0705 2.82656
LeftLeg  31.7529 -4.05934 -2.3714
LeftFoot  -16.0433 -0.388064 -12.1358
LeftToes  8.74931e-010 -1.05764e-010 1.2659e-011
494
root  58.497 37.1575 -0.121618 87.8685 -88.2227 -90.6974
RightUpLeg  -23.3003 -0.472362 2.58909
RightLeg  27.6553 -0.928198 -0.764568
RightFoot  -1.21421 0.23358 -2.73489
RightToes  -4.65663e-010 0 -3.6325e-017
Spine  6.5666 -1.65472 6.60424
Spine1  5.65373 -1.46675 3.09531
HEad  -3.87627 -32.0844 -10.5935
LeftShoulder1  -0.338289 4.37255 -32.5959
LeftArm  25.7042 -1.02225 -47.7158
LeftForeArm  16.8525 -22.8203 -4.2355
LeftHand  -0.0474114 7.94181 -0.218573
RightShoulder  -0.932747 -6.1379 28.7495
RightArm  11.9112 -2.9228 46.241
RightForeArm  21.0169 6.99716 6.42079
RightHand  0.046718 2.49608 0.54643
LeftUpLeg  8.59694 1.19522 3.95235
LeftLeg  41.9004 -4.42346 -3.80893
LeftFoot  -5.32091 0.625052 -12.5971
LeftToes  8.74931e-010 -1.05764e-010 1.2659e-011
495
root  57.3102 37.2684 -0.258862 59.8823 -87.6732 -62.8201
RightUpLeg  -21.6373 -1.31402 3.0317
RightLeg  28.9309 -1.20605 -0.969438
RightFoot  -3.70536 0.1903 -3.21503
RightToes  -4.65663e-010 0 -3.6325e-017
Spine  5.95864 -1.94051 7.72659
Spine1  6.80235 -1.53654 3.28547
HEad  -3.56215 -32.5601 -10.34
LeftShoulder1  -0.591832 4.98738 -33.7595
LeftArm  27.6182 -0.182545 -45.9072
LeftForeArm  17.1038 -21.6162 -4.79003
LeftHand  -0.0678734 7.5003 -1.36957
RightShoulder  -0.709495 -5.60047 27.1898
RightArm  12.3227 -2.70415 47.9236
RightForeArm  18.5872 8.60487 6.4646
RightHand  -0.0818643 3.39078 -1.35456
LeftUpLeg  3.14377 -0.462493 4.40773
LeftLeg  51.1353 -3.17398 -3.77493
LeftFoot  4.54064 1.30365 -9.33182
LeftToes  8.74931e-010 -1.05764e-010 1.2659e-011
496
root  56.1175 37.4697 -0.407165 48.9763 -87.1602 -52.3314
RightUpLeg  -19.0034 -1.86619 3.33975
RightLeg  28.958 -1.30726 -1.03414
RightFoot  -5.63899 0.12658 -3.29399
RightToes  -4.65663e-010 0 -3.6325e-017
Spine  5.82642 -1.49393 9.79481
Spine1  7.00893 -0.335856 1.47422
HEad  -2.36947 -34.5277 -10.0662
LeftShoulder1  -0.451172 4.65325 -33.1284
LeftArm  24.9975 1.52254 -45.424
LeftForeArm  21.1394 -19.7955 -5.8219
LeftHand  -0.0653188 7.67601 -1.10615
RightShoulder  -0.854565 -5.94393 28.439
RightArm  16.2543 -2.69791 46.5202
RightForeArm  15.0952 12.6025 6.47116
RightHand  -0.0481402 3.4221 -0.880979
LeftUpLeg  -1.09282 -1.50812 4.88353
LeftLeg  57.6559 -2.19872 -3.22099
LeftFoot  3.3799 1.13486 -8.90054
LeftToes  8.74931e-010 -1.05764e-010 1.2659e-011
497
root  54.8901 37.7362 -0.558991 35.8907 -87.3919 -39.7509
RightUpLeg  -15.8072 -2.22077 2.91751
RightLeg  28.1456 -1.43454 -1.0815
RightFoot  -7.49648 0.0600283 -3.31487
RightToes  -4.65663e-010 0 -3.6325e-017
Spine  5.61874 -0.99537 10.3029
Spine1  7.10109 0.575228 0.225556
HEad  -1.27891 -35.8571 -10.1637
LeftShoulder1  -0.511894 4.81418 -32.9104
LeftArm  19.6627 3.81813 -44.4583
LeftForeArm  25.0352 -18.3201 -6.60798
LeftHand  -0.0559114 6.90214 -1.10402
RightShoulder  -0.82983 -5.85975 28.5932
RightArm  20.4103 -1.76362 46.5604
RightForeArm  12.8288 15.1019 6.23131
RightHand  -0.060109 2.75215 -1.0562
LeftUpLeg  -4.83955 -2.00147 4.49309
LeftLeg  61.4065 -1.46282 -2.35044
LeftFoot  1.90569 0.815844 -7.14724
LeftToes  8.74931e-010 -1.05764e-010 1.2659e-011
498
root  53.677 37.9844 -0.675173 23.4758 -87.7115 -27.5876
RightUpLeg  -12.7969 -3.09401 2.36678
RightLeg  26.9892 -0.673854 -0.641908
RightFoot  -8.96158 0.0158025 -3.65726
RightToes  -4.65663e-010 0 -3.6325e-017
Spine  4.84621 -0.647531 10.5811
Spine1  7.62737 1.14487 -0.806403
HEad  -0.49866 -36.4277 -9.97744
LeftShoulder1  -0.56096 4.92753 -33.256
LeftArm  15.0138 6.20615 -42.5159
LeftForeArm  25.3666 -17.1753 -7.11461
LeftHand  -0.109878 8.54541 -2.21011
RightShoulder  -0.735771 -5.63475 27.8796
RightArm  23.1156 -0.502553 47.5926
RightForeArm  10.955 17.0099 5.79019
RightHand  -0.104467 3.49024 -1.62655
LeftUpLeg  -8.6884 -1.90981 4.25329
LeftLeg  62.7755 -1.24719 -2.03697
LeftFoot  0.888851 0.727924 -6.81956
LeftToes  8.74931e-010 -1.05764e-010 1.2659e-011
499
root  52.4808 38.2031 -0.761789 8.23715 -88.1744 -12.717
RightUpLeg  -9.6096 -4.07878 1.69815
RightLeg  25.6826 0.463294 -0.155018
RightFoot  -10.3306 -0.0361398 -3.85963
RightToes  -4.65663e-010 0 -3.6325e-017
Spine  4.93268 -0.206956 11.3467
Spine1  7.12089 2.06159 -2.66208
HEad  0.69161 -37.0497 -10.1035
LeftShoulder1  -0.605904 5.05132 -32.9943
LeftArm  10.8395 8.47472 -40.8049
LeftForeArm  25.4914 -15.8011 -7.66216
LeftHand  -0.0977759 8.75814 -1.83251
RightShoulder  -0.824982 -5.86832 28.2862
RightArm  25.0964 0.471336 47.5444
RightForeArm  9.01692 19.382 5.06623
RightHand  -0.0547282 3.97159 -0.94384
LeftUpLeg  -11.8564 -1.93764 3.43863
LeftLeg  61.7382 -0.91338 -1.25551
LeftFoot  -0.45535 0.4766 -4.98884
LeftToes  8.74931e-010 -1.05764e-010 1.2659e-011
500
root  51.3036 38.3566 -0.862841 -20.9401 -88.6021 16.3161
RightUpLeg  -6.85588 -5.17806 0.80388
RightLeg  24.578 1.86764 0.348387
RightFoot  -11.7635 -0.0949403 -4.22937
RightToes  -4.65663e-010 0 -3.6325e-017
Spine  4.45972 0.428714 10.8866
Spine1  7.33434 2.72197 -3.27043
HEad  1.22543 -37.5021 -9.86512
LeftShoulder1  -0.559319 4.93766 -32.8583
LeftArm  6.95924 10.2598 -39.6036
LeftForeArm  26.0774 -14.4023 -8.08622
LeftHand  -0.0710335 10.3793 -0.291925
RightShoulder  -0.873468 -6.0185 28.1463
RightArm  24.7536 1.55205 47.9541
RightForeArm  8.0945 21.5483 4.60048
RightHand  -0.101078 4.0521 -1.51008
LeftUpLeg  -14.7671 -1.27589 2.70535
LeftLeg  58.6256 -1.05852 -1.35144
LeftFoot  -2.3787 0.391179 -4.80736
LeftToes  8.74931e-010 -1.05764e-010 1.2659e-011
501
root  50.1411 38.4589 -0.939486 -50.3794 -88.6656 45.3707
RightUpLeg  -3.85044 -6.1458 0.0205817
RightLeg  23.4366 3.14792 0.69875
RightFoot  -13.0895 -0.153765 -4.31397
RightToes  -4.65663e-010 0 -3.6325e-017
Spine  4.87377 0.610371 10.9751
Spine1  6.79839 3.07715 -4.48525
HEad  1.34847 -37.2664 -10.0562
LeftShoulder1  -0.640884 5.14331 -32.935
LeftArm  5.01948 11.9641 -38.024
LeftForeArm  27.8522 -13.7027 -8.13448
LeftHand  -0.0822005 9.27879 -0.880247
RightShoulder  -0.89852 -6.09672 28.07
RightArm  23.8793 2.53774 48.2997
RightForeArm  7.81085 23.8683 4.67448
RightHand  -0.159799 4.49413 -2.16248
LeftUpLeg  -16.7942 -0.341518 2.07094
LeftLeg  53.5531 -1.11982 -1.16297
LeftFoot  -3.53556 0.327458 -4.49194
LeftToes  8.74931e-010 -1.05764e-010 1.2659e-011
502
root  49.0232 38.5092 -0.998854 -72.0767 -88.4323 66.7419
RightUpLeg  -0.970876 -6.81893 -0.734433
RightLeg  22.2927 4.17185 0.943852
RightFoot  -14.4899 -0.213622 -4.19783
RightToes  -4.65663e-010 0 -3.6325e-017
Spine  5.17303 0.703469 10.6387
Spine1  6.58665 3.14665 -5.22244
HEad  0.869773 -37.0206 -10.0304
LeftShoulder1  -0.66003 5.18898 -33.0144
LeftArm  2.68208 13.3467 -37.0685
LeftForeArm  29.6777 -12.5682 -8.31583
LeftHand  -0.0853395 9.70377 -0.822185
RightShoulder  -0.828081 -5.90412 27.8948
RightArm  22.046 3.47348 48.5825
RightForeArm  8.56978 26.1072 5.15371
RightHand  -0.196944 4.5191 -2.59299
LeftUpLeg  -18.2209 0.73201 1.51226
LeftLeg  46.618 -1.36332 -1.14061
LeftFoot  -4.14734 0.318288 -4.66161
LeftToes  8.74931e-010 -1.05764e-010 1.2659e-011
503
root  47.9489 38.5616 -1.05242 -95.527 -88.2086 90.1719
RightUpLeg  1.58185 -7.18193 -1.37309
RightLeg  20.8529 5.17704 1.11482
RightFoot  -15.3922 -0.257093 -4.3274
RightToes  -4.65663e-010 0 -3.6325e-017
Spine  5.42425 1.12386 9.98415
Spine1  6.33416 3.40736 -5.55042
HEad  0.316388 -37.1298 -10.1063
LeftShoulder1  -0.597252 5.02661 -33.067
LeftArm  0.547749 14.1441 -36.5265
LeftForeArm  31.6617 -10.8763 -8.65047
LeftHand  -0.109976 10.2197 -1.24744
RightShoulder  -0.849594 -5.95276 28.0947
RightArm  20.852 4.39962 48.3976
RightForeArm  9.56975 28.2995 5.60383
RightHand  -0.180029 4.44012 -2.42009
LeftUpLeg  -19.0406 2.19926 0.991099
LeftLeg  37.8105 -1.78189 -1.1094
LeftFoot  -3.70969 0.385973 -5.45064
LeftToes  8.74931e-010 -1.05764e-010 1.2659e-011
504
root  46.834 38.5972 -1.06801 -102.443 -87.9445 97.0083
RightUpLeg  4.53568 -7.86431 -2.11667
RightLeg  18.9698 6.17921 1.26457
RightFoot  -16.181 -0.288762 -4.24896
RightToes  -4.65663e-010 0 -3.6325e-017
Spine  4.65217 1.26336 9.29248
Spine1  7.6339 3.41819 -5.78078
HEad  -1.00373 -37.0684 -9.67922
LeftShoulder1  -0.58528 5.01015 -32.7061
LeftArm  -2.19598 14.6932 -37.065
LeftForeArm  33.8604 -9.16322 -8.62541
LeftHand  -0.129318 10.0586 -1.76586
RightShoulder  -0.867072 -6.00342 28.0959
RightArm  20.2751 5.62898 48.7132
RightForeArm  9.6749 29.6053 5.91022
RightHand  -0.181784 5.45982 -2.25752
LeftUpLeg  -18.8731 3.08868 0.397883
LeftLeg  27.4348 -2.17487 -0.903783
LeftFoot  -3.38918 0.425793 -5.83284
LeftToes  8.74931e-010 -1.05764e-010 1.2659e-011
